<svg preserveAspectRatio="none" width="100%" height="100%" overflow="visible" style="display: block;" viewBox="0 0 21 24" fill="none" xmlns="http://www.w3.org/2000/svg">
<path id="Vector" d="M5.1438 10.5899V6.32775C5.1438 4.91474 5.68953 3.55961 6.66092 2.56046C7.63231 1.56131 8.9498 1 10.3236 1C11.6973 1 13.0148 1.56131 13.9862 2.56046C14.9576 3.55961 15.5033 4.91474 15.5033 6.32775V10.5899M3.0719 10.5899H17.5752C18.7195 10.5899 19.6471 11.5441 19.6471 12.721V20.1799C19.6471 21.3569 18.7195 22.311 17.5752 22.311H3.0719C1.92762 22.311 1 21.3569 1 20.1799V12.721C1 11.5441 1.92762 10.5899 3.0719 10.5899Z" stroke="var(--stroke-0, #7B7773)" stroke-width="2" stroke-linecap="round" stroke-linejoin="round"/>
</svg>
