<svg preserveAspectRatio="none" width="100%" height="100%" overflow="visible" style="display: block;" viewBox="0 0 37 37" fill="none" xmlns="http://www.w3.org/2000/svg">
<path id="Vector" d="M32.1387 1.00414V7.92293M35.5981 4.46354H28.6793M16.6008 2.41212C16.6749 2.01533 16.8855 1.65696 17.196 1.39906C17.5065 1.14117 17.8975 1 18.3011 1C18.7048 1 19.0957 1.14117 19.4062 1.39906C19.7167 1.65696 19.9273 2.01533 20.0014 2.41212L21.8193 12.0258C21.9484 12.7093 22.2806 13.338 22.7724 13.8298C23.2643 14.3216 23.893 14.6538 24.5765 14.7829L34.1901 16.6008C34.5869 16.6749 34.9453 16.8855 35.2032 17.196C35.4611 17.5065 35.6022 17.8975 35.6022 18.3011C35.6022 18.7048 35.4611 19.0957 35.2032 19.4062C34.9453 19.7167 34.5869 19.9273 34.1901 20.0014L24.5765 21.8193C23.893 21.9484 23.2643 22.2806 22.7724 22.7724C22.2806 23.2643 21.9484 23.893 21.8193 24.5765L20.0014 34.1901C19.9273 34.5869 19.7167 34.9453 19.4062 35.2032C19.0957 35.4611 18.7048 35.6022 18.3011 35.6022C17.8975 35.6022 17.5065 35.4611 17.196 35.2032C16.8855 34.9453 16.6749 34.5869 16.6008 34.1901L14.7829 24.5765C14.6538 23.893 14.3216 23.2643 13.8298 22.7724C13.338 22.2806 12.7093 21.9484 12.0258 21.8193L2.41212 20.0014C2.01533 19.9273 1.65696 19.7167 1.39906 19.4062C1.14117 19.0957 1 18.7048 1 18.3011C1 17.8975 1.14117 17.5065 1.39906 17.196C1.65696 16.8855 2.01533 16.6749 2.41212 16.6008L12.0258 14.7829C12.7093 14.6538 13.338 14.3216 13.8298 13.8298C14.3216 13.338 14.6538 12.7093 14.7829 12.0258L16.6008 2.41212ZM7.92293 32.1387C7.92293 34.0493 6.37411 35.5981 4.46354 35.5981C2.55297 35.5981 1.00414 34.0493 1.00414 32.1387C1.00414 30.2281 2.55297 28.6793 4.46354 28.6793C6.37411 28.6793 7.92293 30.2281 7.92293 32.1387Z" stroke="var(--stroke-0, white)" stroke-width="2" stroke-linecap="round" stroke-linejoin="round"/>
</svg>
