<svg preserveAspectRatio="none" width="100%" height="100%" overflow="visible" style="display: block;" viewBox="0 0 55 55" fill="none" xmlns="http://www.w3.org/2000/svg">
<g id="Group 516">
<g id="Group 201">
<circle id="Ellipse 36" cx="27.3655" cy="27.3655" r="27.3655" fill="var(--fill-0, #E1F2E6)"/>
</g>
<g id="Vector">
<path d="M27.815 42.4025C36.4328 42.4025 43.4189 35.4164 43.4189 26.7986C43.4189 18.1809 36.4328 11.1948 27.815 11.1948C19.1973 11.1948 12.2112 18.1809 12.2112 26.7986C12.2112 35.4164 19.1973 42.4025 27.815 42.4025Z" stroke="var(--stroke-0, #33B468)" stroke-width="3" stroke-linecap="round" stroke-linejoin="round"/>
<path d="M27.815 36.161C32.9857 36.161 37.1774 31.9693 37.1774 26.7986C37.1774 21.628 32.9857 17.4363 27.815 17.4363C22.6444 17.4363 18.4527 21.628 18.4527 26.7986C18.4527 31.9693 22.6444 36.161 27.815 36.161Z" stroke="var(--stroke-0, #33B468)" stroke-width="3" stroke-linecap="round" stroke-linejoin="round"/>
<path d="M27.815 29.9194C29.5386 29.9194 30.9358 28.5222 30.9358 26.7986C30.9358 25.0751 29.5386 23.6779 27.815 23.6779C26.0915 23.6779 24.6943 25.0751 24.6943 26.7986C24.6943 28.5222 26.0915 29.9194 27.815 29.9194Z" stroke="var(--stroke-0, #33B468)" stroke-width="3" stroke-linecap="round" stroke-linejoin="round"/>
</g>
</g>
</svg>
