<svg preserveAspectRatio="none" width="100%" height="100%" overflow="visible" style="display: block;" viewBox="0 0 26 24" fill="none" xmlns="http://www.w3.org/2000/svg">
<path id="Vector" d="M17.35 21.8786V19.6143C17.35 18.4132 16.8729 17.2614 16.0236 16.4121C15.1743 15.5628 14.0225 15.0857 12.8214 15.0857H6.02857C4.82752 15.0857 3.67566 15.5628 2.82639 16.4121C1.97712 17.2614 1.5 18.4132 1.5 19.6143V21.8786M17.35 1.64491C18.3211 1.89667 19.1811 2.46375 19.795 3.25715C20.409 4.05056 20.7421 5.02536 20.7421 6.02857C20.7421 7.03177 20.409 8.00658 19.795 8.79998C19.1811 9.59338 18.3211 10.1605 17.35 10.4122M24.1428 21.8786V19.6143C24.1421 18.6109 23.8081 17.6362 23.1934 16.8431C22.5786 16.0501 21.7179 15.4837 20.7464 15.2329M13.9536 6.02857C13.9536 8.52963 11.9261 10.5571 9.42499 10.5571C6.92393 10.5571 4.89643 8.52963 4.89643 6.02857C4.89643 3.52751 6.92393 1.5 9.42499 1.5C11.9261 1.5 13.9536 3.52751 13.9536 6.02857Z" stroke="var(--stroke-0, white)" stroke-width="3" stroke-linecap="round" stroke-linejoin="round"/>
</svg>
