<svg width="23" height="23" viewBox="0 0 23 23" fill="none" xmlns="http://www.w3.org/2000/svg">
<path d="M11.5 22C17.299 22 22 17.299 22 11.5C22 5.70101 17.299 1 11.5 1C5.70101 1 1 5.70101 1 11.5C1 17.299 5.70101 22 11.5 22Z" stroke="#33B468" stroke-width="2" stroke-linecap="round" stroke-linejoin="round"/>
<path d="M11.5 17.8C14.9794 17.8 17.8 14.9794 17.8 11.5C17.8 8.02061 14.9794 5.2 11.5 5.2C8.02061 5.2 5.2 8.02061 5.2 11.5C5.2 14.9794 8.02061 17.8 11.5 17.8Z" stroke="#33B468" stroke-width="2" stroke-linecap="round" stroke-linejoin="round"/>
<path d="M11.5 13.6C12.6598 13.6 13.6 12.6598 13.6 11.5C13.6 10.3402 12.6598 9.4 11.5 9.4C10.3402 9.4 9.4 10.3402 9.4 11.5C9.4 12.6598 10.3402 13.6 11.5 13.6Z" stroke="#33B468" stroke-width="2" stroke-linecap="round" stroke-linejoin="round"/>
</svg>
