<svg preserveAspectRatio="none" width="100%" height="100%" overflow="visible" style="display: block;" viewBox="0 0 38 38" fill="none" xmlns="http://www.w3.org/2000/svg">
<g id="Group 479">
<rect id="Rectangle 206" width="38" height="38" rx="6" fill="var(--fill-0, #D9F2E2)"/>
<path id="Vector" d="M21.1959 16.7709V14.4764C21.1959 13.5166 21.5744 12.5961 22.2481 11.9174C22.9218 11.2387 23.8355 10.8574 24.7883 10.8574H26.1355C26.2546 10.8574 26.3688 10.9051 26.453 10.9899C26.5372 11.0747 26.5845 11.1898 26.5845 11.3098V12.6669C26.5845 13.6267 26.206 14.5473 25.5323 15.226C24.8586 15.9047 23.9449 16.286 22.9921 16.286C22.0393 16.286 21.1256 16.6673 20.4519 17.346C19.7781 18.0247 19.3997 18.9452 19.3997 19.905M19.3997 19.905C19.3997 21.7145 20.2978 22.6193 20.2978 24.4288C20.2978 25.4076 19.9826 26.3601 19.3997 27.1431M19.3997 19.905C19.3997 19.0649 19.1674 18.2414 18.729 17.5267C18.2906 16.8121 17.6632 16.2345 16.9173 15.8588C16.1714 15.4831 15.3364 15.324 14.5058 15.3995C13.6753 15.4749 12.8819 15.7819 12.2148 16.286C12.2148 17.1261 12.447 17.9496 12.8854 18.6643C13.3239 19.3789 13.9512 19.9565 14.6971 20.3322C15.443 20.7079 16.278 20.8669 17.1086 20.7915C17.9392 20.716 18.7325 20.4091 19.3997 19.905ZM13.1129 27.1431H25.6864" stroke="var(--stroke-0, #16A249)" stroke-linecap="round" stroke-linejoin="round"/>
</g>
</svg>
