<svg preserveAspectRatio="none" width="100%" height="100%" overflow="visible" style="display: block;" viewBox="0 0 38 38" fill="none" xmlns="http://www.w3.org/2000/svg">
<g id="Group 485">
<rect id="Rectangle 197" width="38" height="38" rx="8" fill="var(--fill-0, #16A249)"/>
<path id="Vector" d="M21.2573 16.9924V14.607C21.2573 13.6091 21.6508 12.6521 22.3513 11.9464C23.0517 11.2408 24.0017 10.8444 24.9922 10.8444H26.3928C26.5166 10.8444 26.6354 10.894 26.723 10.9822C26.8105 11.0704 26.8597 11.19 26.8597 11.3147V12.7257C26.8597 13.7236 26.4662 14.6806 25.7658 15.3862C25.0653 16.0918 24.1154 16.4883 23.1248 16.4883C22.1342 16.4883 21.1843 16.8847 20.4838 17.5903C19.7834 18.2959 19.3899 19.2529 19.3899 20.2508M19.3899 20.2508C19.3899 22.1321 20.3236 23.0727 20.3236 24.954C20.3236 25.9716 19.996 26.9618 19.3899 27.7759M19.3899 20.2508C19.3899 19.3774 19.1485 18.5212 18.6926 17.7782C18.2368 17.0352 17.5846 16.4348 16.8091 16.0441C16.0337 15.6535 15.1655 15.4882 14.302 15.5666C13.4385 15.6451 12.6137 15.9642 11.9201 16.4883C11.9201 17.3617 12.1615 18.2179 12.6174 18.9609C13.0732 19.7039 13.7254 20.3043 14.5009 20.6949C15.2763 21.0855 16.1445 21.2509 17.008 21.1724C17.8715 21.094 18.6963 20.7749 19.3899 20.2508ZM12.8538 27.7759H25.926" stroke="var(--stroke-0, white)" stroke-linecap="round" stroke-linejoin="round"/>
</g>
</svg>
