<svg preserveAspectRatio="none" width="100%" height="100%" overflow="visible" style="display: block;" viewBox="0 0 38 38" fill="none" xmlns="http://www.w3.org/2000/svg">
<g id="Group 867">
<rect id="Rectangle 200" width="38" height="38" rx="6" fill="var(--fill-0, #D9F2E2)"/>
<path id="Vector" d="M21.5442 9.66965H14.0799C13.585 9.66965 13.1104 9.86625 12.7604 10.2162C12.4105 10.5662 12.2139 11.0408 12.2139 11.5357V26.4643C12.2139 26.9592 12.4105 27.4338 12.7604 27.7838C13.1104 28.1338 13.585 28.3304 14.0799 28.3304H25.2764C25.7713 28.3304 26.2459 28.1338 26.5959 27.7838C26.9458 27.4338 27.1424 26.9592 27.1424 26.4643V15.2679M21.5442 9.66965C21.8396 9.66917 22.1321 9.72712 22.405 9.84018C22.6778 9.95323 22.9256 10.1191 23.1341 10.3284L26.4818 13.6761C26.6916 13.8846 26.858 14.1327 26.9714 14.4059C27.0848 14.6791 27.1429 14.9721 27.1424 15.2679M21.5442 9.66965V14.3348C21.5442 14.5823 21.6425 14.8196 21.8175 14.9946C21.9925 15.1696 22.2298 15.2679 22.4773 15.2679L27.1424 15.2679M17.8121 16.2009H15.946M23.4103 19.933H15.946M23.4103 23.6652H15.946" stroke="var(--stroke-0, #1AA24C)" stroke-linecap="round" stroke-linejoin="round"/>
</g>
</svg>
