<svg preserveAspectRatio="none" width="100%" height="100%" overflow="visible" style="display: block;" viewBox="0 0 30 30" fill="none" xmlns="http://www.w3.org/2000/svg">
<path id="Vector" d="M13.4017 8.17019C18.6295 8.13522 23.6933 9.9935 27.6576 13.4017M14.5788 14.5788C13.2313 16.3901 11.5259 17.9052 9.56858 19.0301C7.61124 20.155 5.44364 20.8657 3.20024 21.1182M14.5788 14.5788C16.8181 14.8462 18.9803 15.5633 20.9356 16.687C22.8909 17.8107 24.599 19.318 25.9574 21.1182M14.5788 14.5788C12.8774 10.3852 12.8774 5.69361 14.5788 1.5M20.8566 16.6714C18.2602 21.2669 14.0741 24.7553 9.0857 26.4805M14.5788 1.5C7.35558 1.5 1.5 7.35558 1.5 14.5788C1.5 21.802 7.35558 27.6576 14.5788 27.6576C21.802 27.6576 27.6576 21.802 27.6576 14.5788C27.6576 7.35558 21.802 1.5 14.5788 1.5ZM7.12388 3.85418C6.10091 9.00318 6.98405 14.3485 9.60885 18.8948" stroke="var(--stroke-0, #16A249)" stroke-width="3" stroke-linecap="round" stroke-linejoin="round"/>
</svg>
