<svg preserveAspectRatio="none" width="100%" height="100%" overflow="visible" style="display: block;" viewBox="0 0 15 15" fill="none" xmlns="http://www.w3.org/2000/svg">
<path id="Vector" d="M12.0717 1.00147V3.46153M13.3018 2.2315H10.8417M6.54707 1.50209C6.57342 1.36101 6.64828 1.23359 6.75869 1.14189C6.8691 1.0502 7.0081 1 7.15163 1C7.29515 1 7.43415 1.0502 7.54456 1.14189C7.65497 1.23359 7.72983 1.36101 7.75619 1.50209L8.40257 4.92035C8.44847 5.16337 8.56658 5.38691 8.74146 5.56179C8.91634 5.73667 9.13988 5.85478 9.3829 5.90068L12.8012 6.54707C12.9422 6.57342 13.0697 6.64828 13.1614 6.75869C13.2531 6.8691 13.3032 7.0081 13.3032 7.15163C13.3032 7.29515 13.2531 7.43415 13.1614 7.54456C13.0697 7.65497 12.9422 7.72983 12.8012 7.75619L9.3829 8.40257C9.13988 8.44847 8.91634 8.56658 8.74146 8.74146C8.56658 8.91634 8.44847 9.13988 8.40257 9.3829L7.75619 12.8012C7.72983 12.9422 7.65497 13.0697 7.54456 13.1614C7.43415 13.2531 7.29515 13.3032 7.15163 13.3032C7.0081 13.3032 6.8691 13.2531 6.75869 13.1614C6.64828 13.0697 6.57342 12.9422 6.54707 12.8012L5.90068 9.3829C5.85478 9.13988 5.73667 8.91634 5.56179 8.74146C5.38691 8.56658 5.16337 8.44847 4.92035 8.40257L1.50209 7.75619C1.36101 7.72983 1.23359 7.65497 1.14189 7.54456C1.0502 7.43415 1 7.29515 1 7.15163C1 7.0081 1.0502 6.8691 1.14189 6.75869C1.23359 6.64828 1.36101 6.57342 1.50209 6.54707L4.92035 5.90068C5.16337 5.85478 5.38691 5.73667 5.56179 5.56179C5.73667 5.38691 5.85478 5.16337 5.90068 4.92035L6.54707 1.50209ZM3.46153 12.0717C3.46153 12.7511 2.91083 13.3018 2.2315 13.3018C1.55218 13.3018 1.00147 12.7511 1.00147 12.0717C1.00147 11.3924 1.55218 10.8417 2.2315 10.8417C2.91083 10.8417 3.46153 11.3924 3.46153 12.0717Z" stroke="var(--stroke-0, #7B7773)" stroke-width="2" stroke-linecap="round" stroke-linejoin="round"/>
</svg>
