<svg preserveAspectRatio="none" width="100%" height="100%" overflow="visible" style="display: block;" viewBox="0 0 163 163" fill="none" xmlns="http://www.w3.org/2000/svg">
<g id="Group 657">
<path id="Ellipse 38" d="M64.1649 160.509C75.3269 162.898 86.8674 162.906 98.0327 160.532C109.198 158.158 119.737 153.455 128.961 146.73C138.185 140.006 145.886 131.411 151.562 121.507C157.238 111.604 160.761 100.614 161.901 89.2563C163.041 77.8985 161.772 66.428 158.177 55.594C154.581 44.76 148.741 34.8064 141.037 26.3832C133.333 17.96 123.939 11.2568 113.468 6.71143C102.998 2.16605 91.6856 -0.119258 80.2714 0.00479282L80.4167 13.3781C89.9499 13.2745 99.3976 15.1832 108.143 18.9795C116.888 22.7758 124.734 28.3743 131.168 35.4093C137.603 42.4444 142.48 50.7577 145.483 59.8062C148.486 68.8547 149.546 78.4349 148.594 87.9209C147.642 97.407 144.7 106.586 139.959 114.857C135.218 123.128 128.786 130.307 121.082 135.923C113.378 141.539 104.576 145.467 95.2509 147.45C85.9257 149.433 76.2871 149.427 66.9646 147.431L64.1649 160.509Z" fill="var(--fill-0, #2FBA66)"/>
<circle id="Ellipse 30" cx="80.3161" cy="6.69306" r="6.69306" fill="var(--fill-0, #2FBA66)"/>
<circle id="Ellipse 31" cx="65.2556" cy="153.94" r="6.69306" fill="var(--fill-0, #2FBA66)"/>
</g>
</svg>
