<svg preserveAspectRatio="none" width="100%" height="100%" overflow="visible" style="display: block;" viewBox="0 0 25 25" fill="none" xmlns="http://www.w3.org/2000/svg">
<g id="Isolation_Mode" clip-path="url(#clip0_299_96)">
<path id="Logo" d="M12.5001 22.425C13.2357 22.425 13.7932 22.5534 14.3779 22.7C14.5163 23.5234 14.6567 24.3037 14.791 25H10.2095C10.3438 24.3037 10.4842 23.5234 10.6226 22.7C11.2073 22.5531 11.7648 22.425 12.5004 22.425H12.5001ZM20.8413 7.925C19.2229 5.125 18.426 0 12.5001 0C6.57416 0 5.77728 5.125 4.15885 7.925C2.51541 10.775 -0.59678 12.425 0.100407 17.075C0.722908 21.275 3.76072 23.125 7.64478 23.125C9.01197 23.125 9.84135 22.8959 10.6226 22.7C11.1254 19.7091 11.606 16.1456 11.7035 13.95C10.882 16.225 8.61603 17.825 5.47885 17.825L5.30447 15.325C10.9067 15.575 11.7532 12.425 12.0273 8.4C11.6288 9.6 10.2345 11.125 7.29635 10.95L7.17197 9.075C9.31322 9.075 11.6538 8.925 11.9276 6.2H13.0729C13.3467 8.925 15.6873 9.075 17.8285 9.075L17.7042 10.95C14.766 11.125 13.3717 9.6 12.9732 8.4C13.247 12.425 14.0935 15.575 19.696 15.325L19.5217 17.825C16.3845 17.825 14.1185 16.225 13.297 13.95C13.3945 16.1456 13.8748 19.7091 14.3779 22.7C15.1588 22.8959 15.9885 23.125 17.3557 23.125C21.2401 23.125 24.2776 21.275 24.9001 17.075C25.5973 12.425 22.4848 10.775 20.8417 7.925H20.8413Z" fill="var(--fill-0, #068043)"/>
</g>
<defs>
<clipPath id="clip0_299_96">
<rect width="25" height="25" fill="white"/>
</clipPath>
</defs>
</svg>
