<svg preserveAspectRatio="none" width="100%" height="100%" overflow="visible" style="display: block;" viewBox="0 0 27 28" fill="none" xmlns="http://www.w3.org/2000/svg">
<path id="Vector" d="M23.0977 1.50299V6.5018M25.4971 4.00239H20.6983M12.3207 2.52025C12.3721 2.23357 12.5181 1.97465 12.7335 1.78832C12.9489 1.602 13.22 1.5 13.5 1.5C13.78 1.5 14.0511 1.602 14.2665 1.78832C14.4819 1.97465 14.6279 2.23357 14.6793 2.52025L15.9402 9.46609C16.0298 9.9599 16.2602 10.4141 16.6013 10.7695C16.9424 11.1248 17.3785 11.3648 17.8526 11.4581L24.5206 12.7715C24.7958 12.8251 25.0443 12.9772 25.2232 13.2016C25.4021 13.4259 25.5 13.7084 25.5 14C25.5 14.2916 25.4021 14.5741 25.2232 14.7984C25.0443 15.0228 24.7958 15.1749 24.5206 15.2285L17.8526 16.5419C17.3785 16.6352 16.9424 16.8752 16.6013 17.2305C16.2602 17.5859 16.0298 18.0401 15.9402 18.5339L14.6793 25.4798C14.6279 25.7664 14.4819 26.0254 14.2665 26.2117C14.0511 26.398 13.78 26.5 13.5 26.5C13.22 26.5 12.9489 26.398 12.7335 26.2117C12.5181 26.0254 12.3721 25.7664 12.3207 25.4798L11.0598 18.5339C10.9702 18.0401 10.7399 17.5859 10.3987 17.2305C10.0576 16.8752 9.62151 16.6352 9.14744 16.5419L2.47944 15.2285C2.20423 15.1749 1.95566 15.0228 1.77679 14.7984C1.59792 14.5741 1.5 14.2916 1.5 14C1.5 13.7084 1.59792 13.4259 1.77679 13.2016C1.95566 12.9772 2.20423 12.8251 2.47944 12.7715L9.14744 11.4581C9.62151 11.3648 10.0576 11.1248 10.3987 10.7695C10.7399 10.4141 10.9702 9.9599 11.0598 9.46609L12.3207 2.52025ZM6.30172 23.9976C6.30172 25.378 5.22746 26.497 3.9023 26.497C2.57713 26.497 1.50287 25.378 1.50287 23.9976C1.50287 22.6172 2.57713 21.4982 3.9023 21.4982C5.22746 21.4982 6.30172 22.6172 6.30172 23.9976Z" stroke="var(--stroke-0, #16A249)" stroke-width="3" stroke-linecap="round" stroke-linejoin="round"/>
</svg>
