<svg preserveAspectRatio="none" width="100%" height="100%" overflow="visible" style="display: block;" viewBox="0 0 25 25" fill="none" xmlns="http://www.w3.org/2000/svg">
<g id="Vector">
<path d="M12.2708 23.0415C18.2193 23.0415 23.0415 18.2193 23.0415 12.2708C23.0415 6.32224 18.2193 1.5 12.2708 1.5C6.32224 1.5 1.5 6.32224 1.5 12.2708C1.5 18.2193 6.32224 23.0415 12.2708 23.0415Z" stroke="var(--stroke-0, #33B468)" stroke-width="3" stroke-linecap="round" stroke-linejoin="round"/>
<path d="M12.2708 18.7332C15.8399 18.7332 18.7332 15.8399 18.7332 12.2708C18.7332 8.70165 15.8399 5.80831 12.2708 5.80831C8.70165 5.80831 5.80831 8.70165 5.80831 12.2708C5.80831 15.8399 8.70165 18.7332 12.2708 18.7332Z" stroke="var(--stroke-0, #33B468)" stroke-width="3" stroke-linecap="round" stroke-linejoin="round"/>
<path d="M12.2708 14.4249C13.4605 14.4249 14.4249 13.4605 14.4249 12.2708C14.4249 11.0811 13.4605 10.1166 12.2708 10.1166C11.0811 10.1166 10.1166 11.0811 10.1166 12.2708C10.1166 13.4605 11.0811 14.4249 12.2708 14.4249Z" stroke="var(--stroke-0, #33B468)" stroke-width="3" stroke-linecap="round" stroke-linejoin="round"/>
</g>
</svg>
