<svg preserveAspectRatio="none" width="100%" height="100%" overflow="visible" style="display: block;" viewBox="0 0 35 35" fill="none" xmlns="http://www.w3.org/2000/svg">
<g id="Vector">
<path d="M17.1039 32.7078C12.9655 32.7078 8.99657 31.0638 6.07027 28.1375C3.14398 25.2112 1.5 21.2423 1.5 17.1039C1.5 12.9655 3.14398 8.99657 6.07027 6.07027C8.99657 3.14398 12.9655 1.5 17.1039 1.5C21.2423 1.5 25.2112 2.97958 28.1375 5.61324C31.0638 8.24691 32.7078 11.8189 32.7078 15.5435C32.7078 17.6127 31.8858 19.5972 30.4226 21.0603C28.9595 22.5234 26.975 23.3454 24.9058 23.3454H21.3949C20.8878 23.3454 20.3907 23.4866 19.9593 23.7533C19.528 24.0199 19.1793 24.4013 18.9526 24.8549C18.7258 25.3085 18.6298 25.8163 18.6753 26.3213C18.7208 26.8264 18.9061 27.3088 19.2104 27.7145L19.6785 28.3387C19.9828 28.7444 20.1681 29.2268 20.2136 29.7319C20.2592 30.2369 20.1632 30.7447 19.9364 31.1983C19.7096 31.6519 19.361 32.0333 18.9296 32.2999C18.4982 32.5665 18.0011 32.7078 17.494 32.7078H17.1039Z" stroke="var(--stroke-0, #F59F0A)" stroke-width="3" stroke-linecap="round" stroke-linejoin="round"/>
<path d="M19.4445 9.30194C19.8754 9.30194 20.2247 8.95264 20.2247 8.52175C20.2247 8.09086 19.8754 7.74155 19.4445 7.74155C19.0136 7.74155 18.6643 8.09086 18.6643 8.52175C18.6643 8.95264 19.0136 9.30194 19.4445 9.30194Z" stroke="var(--stroke-0, #F59F0A)" stroke-width="3" stroke-linecap="round" stroke-linejoin="round"/>
<path d="M25.686 15.5435C26.1169 15.5435 26.4662 15.1942 26.4662 14.7633C26.4662 14.3324 26.1169 13.9831 25.686 13.9831C25.2551 13.9831 24.9058 14.3324 24.9058 14.7633C24.9058 15.1942 25.2551 15.5435 25.686 15.5435Z" stroke="var(--stroke-0, #F59F0A)" stroke-width="3" stroke-linecap="round" stroke-linejoin="round"/>
<path d="M8.52175 18.6643C8.95264 18.6643 9.30194 18.315 9.30194 17.8841C9.30194 17.4532 8.95264 17.1039 8.52175 17.1039C8.09086 17.1039 7.74155 17.4532 7.74155 17.8841C7.74155 18.315 8.09086 18.6643 8.52175 18.6643Z" stroke="var(--stroke-0, #F59F0A)" stroke-width="3" stroke-linecap="round" stroke-linejoin="round"/>
<path d="M11.6425 10.8623C12.0734 10.8623 12.4227 10.513 12.4227 10.0821C12.4227 9.65125 12.0734 9.30194 11.6425 9.30194C11.2116 9.30194 10.8623 9.65125 10.8623 10.0821C10.8623 10.513 11.2116 10.8623 11.6425 10.8623Z" stroke="var(--stroke-0, #F59F0A)" stroke-width="3" stroke-linecap="round" stroke-linejoin="round"/>
</g>
</svg>
