<svg preserveAspectRatio="none" width="100%" height="100%" overflow="visible" style="display: block;" viewBox="0 0 26 26" fill="none" xmlns="http://www.w3.org/2000/svg">
<g id="Vector">
<path d="M12.7037 17.3852C15.2892 17.3852 17.3852 15.2892 17.3852 12.7037C17.3852 10.1182 15.2892 8.02222 12.7037 8.02222C10.1182 8.02222 8.02222 10.1182 8.02222 12.7037C8.02222 15.2892 10.1182 17.3852 12.7037 17.3852Z" fill="var(--fill-0, #F1B959)"/>
<path d="M12.7037 1V3.34074Z" fill="var(--fill-0, #F1B959)"/>
<path d="M12.7037 22.0666V24.4074Z" fill="var(--fill-0, #F1B959)"/>
<path d="M4.42918 4.42918L6.0794 6.0794Z" fill="var(--fill-0, #F1B959)"/>
<path d="M19.328 19.328L20.9782 20.9782Z" fill="var(--fill-0, #F1B959)"/>
<path d="M1 12.7037H3.34074Z" fill="var(--fill-0, #F1B959)"/>
<path d="M22.0666 12.7037H24.4074Z" fill="var(--fill-0, #F1B959)"/>
<path d="M6.0794 19.328L4.42918 20.9782Z" fill="var(--fill-0, #F1B959)"/>
<path d="M20.9782 4.42918L19.328 6.0794Z" fill="var(--fill-0, #F1B959)"/>
<path d="M12.7037 1V3.34074M12.7037 22.0666V24.4074M4.42918 4.42918L6.0794 6.0794M19.328 19.328L20.9782 20.9782M1 12.7037H3.34074M22.0666 12.7037H24.4074M6.0794 19.328L4.42918 20.9782M20.9782 4.42918L19.328 6.0794M17.3852 12.7037C17.3852 15.2892 15.2892 17.3852 12.7037 17.3852C10.1182 17.3852 8.02222 15.2892 8.02222 12.7037C8.02222 10.1182 10.1182 8.02222 12.7037 8.02222C15.2892 8.02222 17.3852 10.1182 17.3852 12.7037Z" stroke="var(--stroke-0, #F1B959)" stroke-width="2" stroke-linecap="round" stroke-linejoin="round"/>
</g>
</svg>
