<svg preserveAspectRatio="none" width="100%" height="100%" overflow="visible" style="display: block;" viewBox="0 0 28 31" fill="none" xmlns="http://www.w3.org/2000/svg">
<path id="Vector" d="M16.8861 11.4601V7.4015C16.8861 5.70372 17.5556 4.07547 18.7472 2.87496C19.9389 1.67444 21.5552 1 23.2405 1H25.6234C25.8341 1 26.0361 1.08431 26.1851 1.23437C26.334 1.38443 26.4177 1.58796 26.4177 1.80019V4.20075C26.4177 5.89853 25.7482 7.52678 24.5566 8.7273C23.3649 9.92781 21.7486 10.6023 20.0633 10.6023C18.378 10.6023 16.7617 11.2767 15.57 12.4772C14.3783 13.6777 13.7089 15.306 13.7089 17.0038M13.7089 17.0038C13.7089 20.2045 15.2975 21.8049 15.2975 25.0056C15.2975 26.737 14.74 28.4217 13.7089 29.8068M13.7089 17.0038C13.7089 15.5177 13.2981 14.061 12.5226 12.7969C11.7471 11.5328 10.6374 10.5112 9.31806 9.84666C7.99867 9.18208 6.52165 8.90075 5.05249 9.03421C3.58334 9.16766 2.18009 9.71062 1 10.6023C1 12.0883 1.41077 13.545 2.18629 14.8091C2.9618 16.0732 4.07142 17.0948 5.3908 17.7593C6.71019 18.4239 8.18721 18.7052 9.65637 18.5718C11.1255 18.4383 12.5288 17.8954 13.7089 17.0038ZM2.58861 29.8068H24.8291" stroke="var(--stroke-0, white)" stroke-width="2" stroke-linecap="round" stroke-linejoin="round"/>
</svg>
