<svg preserveAspectRatio="none" width="100%" height="100%" overflow="visible" style="display: block;" viewBox="0 0 32 23" fill="none" xmlns="http://www.w3.org/2000/svg">
<g id="Vector">
<path d="M1.58793 11.8365C1.47069 11.5206 1.47069 11.1732 1.58793 10.8573C2.72985 8.08849 4.66819 5.72106 7.15722 4.05519C9.64625 2.38931 12.5739 1.5 15.5689 1.5C18.564 1.5 21.4916 2.38931 23.9807 4.05519C26.4697 5.72106 28.408 8.08849 29.5499 10.8573C29.6672 11.1732 29.6672 11.5206 29.5499 11.8365C28.408 14.6053 26.4697 16.9727 23.9807 18.6386C21.4916 20.3045 18.564 21.1938 15.5689 21.1938C12.5739 21.1938 9.64625 20.3045 7.15722 18.6386C4.66819 16.9727 2.72985 14.6053 1.58793 11.8365Z" stroke="var(--stroke-0, #16A249)" stroke-width="3" stroke-linecap="round" stroke-linejoin="round"/>
<path d="M15.5689 15.5674C17.8998 15.5674 19.7894 13.6778 19.7894 11.3469C19.7894 9.01599 17.8998 7.12642 15.5689 7.12642C13.238 7.12642 11.3485 9.01599 11.3485 11.3469C11.3485 13.6778 13.238 15.5674 15.5689 15.5674Z" stroke="var(--stroke-0, #16A249)" stroke-width="3" stroke-linecap="round" stroke-linejoin="round"/>
</g>
</svg>
