<svg preserveAspectRatio="none" width="100%" height="100%" overflow="visible" style="display: block;" viewBox="0 0 28 28" fill="none" xmlns="http://www.w3.org/2000/svg">
<path id="Vector" d="M13.4135 17.8029L9.65133 14.0408M13.4135 17.8029C15.1652 17.1367 16.8457 16.2965 18.4297 15.2948M13.4135 17.8029V24.0732C13.4135 24.0732 17.2132 23.3835 18.4297 21.5651C19.784 19.5335 18.4297 15.2948 18.4297 15.2948M9.65133 14.0408C10.3187 12.3095 11.159 10.6499 12.1594 9.08731C13.6206 6.751 15.6552 4.82736 18.0698 3.49938C20.4843 2.17139 23.1984 1.48322 25.954 1.50031C25.954 4.91132 24.9758 10.9057 18.4297 15.2948M9.65133 14.0408H3.38109C3.38109 14.0408 4.07081 10.241 5.88918 9.0246C7.92074 7.67023 12.1594 9.0246 12.1594 9.0246M4.00811 19.684C2.12704 21.2641 1.50001 25.9543 1.50001 25.9543C1.50001 25.9543 6.19016 25.3272 7.77026 23.4462C8.66063 22.3928 8.64809 20.775 7.65739 19.7969C7.16995 19.3316 6.52786 19.0628 5.85435 19.042C5.18085 19.0212 4.52337 19.2498 4.00811 19.684Z" stroke="var(--stroke-0, white)" stroke-width="3" stroke-linecap="round" stroke-linejoin="round"/>
</svg>
