<svg preserveAspectRatio="none" width="100%" height="100%" overflow="visible" style="display: block;" viewBox="0 0 22 19" fill="none" xmlns="http://www.w3.org/2000/svg">
<path id="Vector" d="M1 6.51102C1.00002 5.39926 1.33759 4.31365 1.96813 3.39758C2.59867 2.48152 3.49251 1.77809 4.5316 1.3802C5.57069 0.982311 6.70614 0.908683 7.78799 1.16904C8.86984 1.4294 9.8472 2.01149 10.591 2.83844C10.6434 2.8944 10.7067 2.93902 10.777 2.96952C10.8474 3.00002 10.9233 3.01576 11 3.01576C11.0767 3.01576 11.1525 3.00002 11.2229 2.96952C11.2932 2.93902 11.3566 2.8944 11.409 2.83844C12.1504 2.00612 13.128 1.41913 14.2116 1.15561C15.2952 0.89209 16.4334 0.964533 17.4748 1.3633C18.5162 1.76206 19.4113 2.46824 20.0411 3.38783C20.6708 4.30742 21.0052 5.39682 20.9999 6.51102C20.9999 8.79889 19.4999 10.5073 17.9999 12.0059L12.508 17.314C12.3216 17.5278 12.0919 17.6995 11.834 17.8178C11.5761 17.9361 11.296 17.9982 11.0123 18C10.7285 18.0018 10.4476 17.9432 10.1883 17.8282C9.9289 17.7132 9.697 17.5444 9.50797 17.3329L3.99999 12.0059C2.5 10.5073 1 8.80888 1 6.51102Z" stroke="var(--stroke-0, #F59F0A)" stroke-width="2" stroke-linecap="round" stroke-linejoin="round"/>
</svg>
