<svg preserveAspectRatio="none" width="100%" height="100%" overflow="visible" style="display: block;" viewBox="0 0 52 52" fill="none" xmlns="http://www.w3.org/2000/svg">
<g id="Group 864">
<rect id="Rectangle 27" width="52" height="52" rx="5" fill="url(#paint0_linear_299_33)"/>
<path id="Vector" d="M25.0867 28.0594C24.9133 27.8863 24.7067 27.7502 24.4793 27.6591L17.2847 24.774C17.1988 24.7396 17.1255 24.6796 17.0746 24.6023C17.0238 24.525 16.9978 24.4339 17.0001 24.3414C17.0025 24.2489 17.0331 24.1593 17.0879 24.0847C17.1426 24.01 17.2189 23.954 17.3065 23.9239L34.5444 18.0268C34.6247 17.9977 34.7117 17.9922 34.7952 18.0108C34.8786 18.0294 34.955 18.0714 35.0154 18.1318C35.0759 18.1922 35.1178 18.2686 35.1364 18.3521C35.155 18.4355 35.1495 18.5225 35.1205 18.6029L29.2233 35.8408C29.1933 35.9283 29.1372 36.0046 29.0626 36.0593C28.9879 36.1141 28.8983 36.1447 28.8058 36.1471C28.7133 36.1494 28.6222 36.1235 28.5449 36.0726C28.4676 36.0217 28.4077 35.9484 28.3732 35.8625L25.4881 28.6662C25.3967 28.4389 25.2601 28.2325 25.0867 28.0594ZM25.0867 28.0594L35.0125 18.1356" stroke="var(--stroke-0, white)" stroke-width="2" stroke-linecap="round" stroke-linejoin="round"/>
</g>
<defs>
<linearGradient id="paint0_linear_299_33" x1="52" y1="26" x2="0" y2="26" gradientUnits="userSpaceOnUse">
<stop stop-color="#F1C371"/>
<stop offset="1" stop-color="#EFB859"/>
</linearGradient>
</defs>
</svg>
