<svg preserveAspectRatio="none" width="100%" height="100%" overflow="visible" style="display: block;" viewBox="0 0 25 27" fill="none" xmlns="http://www.w3.org/2000/svg">
<path id="Vector" d="M6.38889 12.3V7.5C6.38889 5.9087 7.03274 4.38258 8.17879 3.25736C9.32485 2.13214 10.8792 1.5 12.5 1.5C14.1208 1.5 15.6752 2.13214 16.8212 3.25736C17.9673 4.38258 18.6111 5.9087 18.6111 7.5V12.3M3.94444 12.3H21.0556C22.4056 12.3 23.5 13.3745 23.5 14.7V23.1C23.5 24.4255 22.4056 25.5 21.0556 25.5H3.94444C2.59441 25.5 1.5 24.4255 1.5 23.1V14.7C1.5 13.3745 2.59441 12.3 3.94444 12.3Z" stroke="var(--stroke-0, #7B7773)" stroke-width="3" stroke-linecap="round" stroke-linejoin="round"/>
</svg>
