<svg width="31" height="28" viewBox="0 0 31 28" fill="none" xmlns="http://www.w3.org/2000/svg">
<path d="M21.1 26.5V23.7222C21.1 22.2488 20.51 20.8357 19.4598 19.7939C18.4096 18.752 16.9852 18.1667 15.5 18.1667H7.1C5.61479 18.1667 4.19041 18.752 3.1402 19.7939C2.09 20.8357 1.5 22.2488 1.5 23.7222V26.5M21.1 1.67778C22.3009 1.98662 23.3644 2.68231 24.1236 3.65564C24.8828 4.62897 25.2947 5.82485 25.2947 7.05556C25.2947 8.28626 24.8828 9.48214 24.1236 10.4555C23.3644 11.4288 22.3009 12.1245 21.1 12.4333M29.5 26.5V23.7222C29.4991 22.4913 29.0861 21.2955 28.3259 20.3227C27.5657 19.3498 26.5014 18.655 25.3 18.3472M16.9 7.05556C16.9 10.1238 14.3928 12.6111 11.3 12.6111C8.20721 12.6111 5.7 10.1238 5.7 7.05556C5.7 3.98731 8.20721 1.5 11.3 1.5C14.3928 1.5 16.9 3.98731 16.9 7.05556Z" stroke="#4ADAAB" stroke-width="3" stroke-linecap="round" stroke-linejoin="round"/>
</svg>
