<svg preserveAspectRatio="none" width="100%" height="100%" overflow="visible" style="display: block;" viewBox="0 0 18 20" fill="none" xmlns="http://www.w3.org/2000/svg">
<path id="Vector" d="M8.785 18.8513V16.0327M13.4827 11.335L16.3013 14.4354C16.4301 14.5668 16.5175 14.733 16.5527 14.9135C16.5878 15.094 16.5693 15.2809 16.4992 15.4509C16.4292 15.621 16.3108 15.7668 16.1587 15.8702C16.0066 15.9736 15.8275 16.0301 15.6437 16.0327H1.92635C1.74245 16.0301 1.56336 15.9736 1.41127 15.8702C1.25919 15.7668 1.14079 15.621 1.07077 15.4509C1.00074 15.2809 0.982171 15.094 1.01735 14.9135C1.05253 14.733 1.13991 14.5668 1.26867 14.4354L4.08729 11.335H3.80543C3.62154 11.3324 3.44245 11.2759 3.29036 11.1725C3.13827 11.0691 3.01988 10.9233 2.94985 10.7532C2.87983 10.5832 2.86125 10.3963 2.89643 10.2158C2.93161 10.0353 3.01899 9.86906 3.14775 9.73774L5.96638 6.63725H5.77847C5.58656 6.65456 5.39398 6.61245 5.22681 6.51663C5.05965 6.42081 4.92598 6.2759 4.84394 6.10156C4.7619 5.92722 4.73544 5.73187 4.76816 5.54198C4.80087 5.3521 4.89118 5.17686 5.02683 5.04003L8.785 1L12.5432 5.04003C12.6788 5.17686 12.7691 5.3521 12.8018 5.54198C12.8346 5.73187 12.8081 5.92722 12.7261 6.10156C12.644 6.2759 12.5104 6.42081 12.3432 6.51663C12.176 6.61245 11.9834 6.65456 11.7915 6.63725H11.6036L14.4223 9.73774C14.551 9.86906 14.6384 10.0353 14.6736 10.2158C14.7087 10.3963 14.6902 10.5832 14.6201 10.7532C14.5501 10.9233 14.4317 11.0691 14.2796 11.1725C14.1276 11.2759 13.9485 11.3324 13.7646 11.335H13.4827Z" stroke="var(--stroke-0, black)" stroke-width="2" stroke-linecap="round" stroke-linejoin="round"/>
</svg>
