<svg width="16" height="16" viewBox="0 0 16 16" fill="none" xmlns="http://www.w3.org/2000/svg">
<path d="M1 15C1 12.7895 2.36316 11.0505 4.74316 10.5789C6.52632 10.2253 8.36842 9.10526 9.10526 8.36842M7.63158 14.2632C6.33773 14.2671 5.08966 13.7846 4.13491 12.9114C3.18015 12.0381 2.58846 10.838 2.47717 9.54892C2.36589 8.25986 2.74314 6.97605 3.53411 5.95213C4.32508 4.9282 5.47199 4.23894 6.74737 4.02105C10.9474 3.21053 12.0526 2.82737 13.5263 1C14.2632 2.47368 15 4.08 15 6.89474C15 10.9474 11.4779 14.2632 7.63158 14.2632Z" stroke="black" stroke-width="2" stroke-linecap="round" stroke-linejoin="round"/>
</svg>
