<svg width="15" height="16" viewBox="0 0 15 16" fill="none" xmlns="http://www.w3.org/2000/svg">
<path d="M9.125 6.08356V4.11111C9.125 3.28599 9.46741 2.49467 10.0769 1.91122C10.6864 1.32778 11.513 1 12.375 1H13.5938C13.7015 1 13.8048 1.04097 13.881 1.1139C13.9572 1.18683 14 1.28575 14 1.38889V2.55556C14 3.38067 13.6576 4.172 13.0481 4.75544C12.4386 5.33889 11.612 5.66667 10.75 5.66667C9.88805 5.66667 9.0614 5.99444 8.4519 6.57789C7.84241 7.16134 7.5 7.95266 7.5 8.77778M7.5 8.77778C7.5 10.3333 8.3125 11.1111 8.3125 12.6667C8.3125 13.5081 8.0274 14.3268 7.5 15M7.5 8.77778C7.5 8.05556 7.28991 7.34762 6.89327 6.73327C6.49663 6.11892 5.92911 5.62243 5.25431 5.29945C4.5795 4.97647 3.82407 4.83974 3.07266 4.9046C2.32126 4.96946 1.60356 5.23334 1 5.66667C1 6.38888 1.21009 7.09683 1.60673 7.71118C2.00337 8.32553 2.57089 8.82201 3.24569 9.14499C3.9205 9.46798 4.67593 9.6047 5.42734 9.53984C6.17874 9.47498 6.89644 9.21111 7.5 8.77778ZM1.8125 15H13.1875" stroke="black" stroke-width="2" stroke-linecap="round" stroke-linejoin="round"/>
</svg>
