<svg width="35" height="35" viewBox="0 0 35 35" fill="none" xmlns="http://www.w3.org/2000/svg">
<path d="M17.0784 32.6568C25.6822 32.6568 32.6568 25.6822 32.6568 17.0784C32.6568 8.4747 25.6822 1.5 17.0784 1.5C8.4747 1.5 1.5 8.4747 1.5 17.0784C1.5 25.6822 8.4747 32.6568 17.0784 32.6568Z" stroke="#489A6D" stroke-width="3" stroke-linecap="round" stroke-linejoin="round"/>
<path d="M17.0784 26.4255C22.2407 26.4255 26.4255 22.2407 26.4255 17.0784C26.4255 11.9162 22.2407 7.73137 17.0784 7.73137C11.9162 7.73137 7.73137 11.9162 7.73137 17.0784C7.73137 22.2407 11.9162 26.4255 17.0784 26.4255Z" stroke="#489A6D" stroke-width="3" stroke-linecap="round" stroke-linejoin="round"/>
<path d="M17.0784 20.1941C18.7992 20.1941 20.1941 18.7992 20.1941 17.0784C20.1941 15.3577 18.7992 13.9627 17.0784 13.9627C15.3577 13.9627 13.9627 15.3577 13.9627 17.0784C13.9627 18.7992 15.3577 20.1941 17.0784 20.1941Z" stroke="#489A6D" stroke-width="3" stroke-linecap="round" stroke-linejoin="round"/>
</svg>
