<svg preserveAspectRatio="none" width="100%" height="100%" overflow="visible" style="display: block;" viewBox="0 0 19 20" fill="none" xmlns="http://www.w3.org/2000/svg">
<path id="Vector" d="M12.3333 19V11.4212C12.3333 11.17 12.2338 10.929 12.0567 10.7514C11.8796 10.5737 11.6394 10.4739 11.3889 10.4739H7.61111C7.36063 10.4739 7.12041 10.5737 6.94329 10.7514C6.76617 10.929 6.66667 11.17 6.66667 11.4212V19M1 8.57921C0.999934 8.3036 1.05982 8.03129 1.17547 7.78128C1.29112 7.53127 1.45975 7.30958 1.66961 7.13167L8.28072 1.4476C8.62165 1.15857 9.05361 1 9.5 1C9.94638 1 10.3783 1.15857 10.7193 1.4476L17.3304 7.13167C17.5402 7.30958 17.7089 7.53127 17.8245 7.78128C17.9402 8.03129 18.0001 8.3036 18 8.57921V17.1053C18 17.6078 17.801 18.0897 17.4468 18.4451C17.0925 18.8004 16.6121 19 16.1111 19H2.88889C2.38792 19 1.90748 18.8004 1.55324 18.4451C1.19901 18.0897 1 17.6078 1 17.1053V8.57921Z" stroke="var(--stroke-0, black)" stroke-width="2" stroke-linecap="round" stroke-linejoin="round"/>
</svg>
