<svg preserveAspectRatio="none" width="100%" height="100%" overflow="visible" style="display: block;" viewBox="0 0 18 20" fill="none" xmlns="http://www.w3.org/2000/svg">
<path id="Vector" d="M11 7.536V5C11 3.93913 11.4214 2.92172 12.1716 2.17157C12.9217 1.42143 13.9391 1 15 1H16.5C16.6326 1 16.7598 1.05268 16.8536 1.14645C16.9473 1.24021 17 1.36739 17 1.5V3C17 4.06087 16.5786 5.07828 15.8284 5.82843C15.0783 6.57857 14.0609 7 13 7C11.9391 7 10.9217 7.42143 10.1716 8.17157C9.42143 8.92172 9 9.93913 9 11M9 11C9 13 10 14 10 16C10 17.0819 9.64911 18.1345 9 19M9 11C9 10.0714 8.74143 9.16122 8.25325 8.37134C7.76508 7.58146 7.0666 6.94313 6.23607 6.52786C5.40554 6.1126 4.47578 5.93681 3.55097 6.0202C2.62616 6.10359 1.74285 6.44286 1 7C1 7.92856 1.25857 8.83878 1.74675 9.62866C2.23492 10.4185 2.9334 11.0569 3.76393 11.4721C4.59446 11.8874 5.52422 12.0632 6.44903 11.9798C7.37384 11.8964 8.25715 11.5571 9 11ZM2 19H16" stroke="var(--stroke-0, white)" stroke-width="2" stroke-linecap="round" stroke-linejoin="round"/>
</svg>
