<svg width="14" height="16" viewBox="0 0 14 16" fill="none" xmlns="http://www.w3.org/2000/svg">
<path d="M7 15V12.7895M10.6206 9.10526L12.7929 11.5368C12.8922 11.6398 12.9595 11.7702 12.9866 11.9118C13.0137 12.0533 12.9994 12.1999 12.9455 12.3333C12.8915 12.4666 12.8002 12.5809 12.683 12.662C12.5658 12.7431 12.4278 12.7874 12.2861 12.7895H1.71395C1.57222 12.7874 1.43419 12.7431 1.31697 12.662C1.19976 12.5809 1.10851 12.4666 1.05454 12.3333C1.00057 12.1999 0.986258 12.0533 1.01337 11.9118C1.04048 11.7702 1.10783 11.6398 1.20706 11.5368L3.37942 9.10526H3.16218C3.02045 9.10324 2.88242 9.05893 2.76521 8.97783C2.64799 8.89674 2.55674 8.78242 2.50278 8.64905C2.44881 8.51568 2.43449 8.36912 2.4616 8.22755C2.48872 8.08598 2.55606 7.95562 2.6553 7.85263L4.82765 5.42105H4.68283C4.53492 5.43463 4.3865 5.4016 4.25766 5.32645C4.12882 5.25131 4.02581 5.13766 3.96257 5.00094C3.89934 4.86421 3.87895 4.711 3.90417 4.56208C3.92938 4.41316 3.99898 4.27573 4.10353 4.16842L7 1L9.89647 4.16842C10.001 4.27573 10.0706 4.41316 10.0958 4.56208C10.121 4.711 10.1007 4.86421 10.0374 5.00094C9.97419 5.13766 9.87118 5.25131 9.74234 5.32645C9.6135 5.4016 9.46508 5.43463 9.31717 5.42105H9.17235L11.3447 7.85263C11.4439 7.95562 11.5113 8.08598 11.5384 8.22755C11.5655 8.36912 11.5512 8.51568 11.4972 8.64905C11.4433 8.78242 11.352 8.89674 11.2348 8.97783C11.1176 9.05893 10.9795 9.10324 10.8378 9.10526H10.6206Z" stroke="black" stroke-width="2" stroke-linecap="round" stroke-linejoin="round"/>
</svg>
