<svg preserveAspectRatio="none" width="100%" height="100%" overflow="visible" style="display: block;" viewBox="0 0 20 20" fill="none" xmlns="http://www.w3.org/2000/svg">
<path id="Vector" d="M1 19C1 16.1579 2.75263 13.9221 5.81263 13.3158C8.10526 12.8611 10.4737 11.4211 11.4211 10.4737M9.52632 18.0526C7.86279 18.0577 6.25813 17.4373 5.0306 16.3146C3.80306 15.1919 3.0423 13.6488 2.89922 11.9915C2.75614 10.3341 3.24118 8.68351 4.25814 7.36703C5.2751 6.05055 6.7497 5.16436 8.38947 4.88422C13.7895 3.84212 15.2105 3.34948 17.1053 1.00001C18.0526 2.89475 19 4.96001 19 8.57896C19 13.7895 14.4716 18.0526 9.52632 18.0526Z" stroke="var(--stroke-0, black)" stroke-width="2" stroke-linecap="round" stroke-linejoin="round"/>
</svg>
