<svg preserveAspectRatio="none" width="100%" height="100%" overflow="visible" style="display: block;" viewBox="0 0 38 38" fill="none" xmlns="http://www.w3.org/2000/svg">
<g id="Group 866">
<circle id="Ellipse 48" cx="19" cy="19" r="19" fill="var(--fill-0, #EAEAEA)"/>
<g id="Vector">
<path d="M27.8671 23.625C27.8671 24.0954 27.6803 24.5464 27.3477 24.879C27.0152 25.2115 26.5641 25.3984 26.0938 25.3984H14.4146C13.9443 25.3985 13.4934 25.5854 13.1609 25.918L11.2084 27.8704C11.1204 27.9584 11.0082 28.0184 10.8861 28.0427C10.764 28.0669 10.6374 28.0545 10.5224 28.0068C10.4074 27.9592 10.3091 27.8785 10.2399 27.775C10.1707 27.6715 10.1338 27.5498 10.1338 27.4253V12.985C10.1338 12.5147 10.3206 12.0637 10.6532 11.7311C10.9858 11.3985 11.4368 11.2117 11.9071 11.2117H26.0938C26.5641 11.2117 27.0152 11.3985 27.3477 11.7311C27.6803 12.0637 27.8671 12.5147 27.8671 12.985V23.625Z" fill="var(--fill-0, #EAEAEA)"/>
<path d="M14.5671 18.305H23.4338Z" fill="var(--fill-0, #EAEAEA)"/>
<path d="M14.5671 21.8517H19.8871Z" fill="var(--fill-0, #EAEAEA)"/>
<path d="M14.5671 14.7584H21.6605Z" fill="var(--fill-0, #EAEAEA)"/>
<path d="M14.5671 18.305H23.4338M14.5671 21.8517H19.8871M14.5671 14.7584H21.6605M27.8671 23.625C27.8671 24.0954 27.6803 24.5464 27.3477 24.879C27.0152 25.2115 26.5641 25.3984 26.0938 25.3984H14.4146C13.9443 25.3985 13.4934 25.5854 13.1609 25.918L11.2084 27.8704C11.1204 27.9584 11.0082 28.0184 10.8861 28.0427C10.764 28.0669 10.6374 28.0545 10.5224 28.0068C10.4074 27.9592 10.3091 27.8785 10.2399 27.775C10.1707 27.6715 10.1338 27.5498 10.1338 27.4253V12.985C10.1338 12.5147 10.3206 12.0637 10.6532 11.7311C10.9858 11.3985 11.4368 11.2117 11.9071 11.2117H26.0938C26.5641 11.2117 27.0152 11.3985 27.3477 11.7311C27.6803 12.0637 27.8671 12.5147 27.8671 12.985V23.625Z" stroke="var(--stroke-0, black)" stroke-linecap="round" stroke-linejoin="round"/>
</g>
</g>
</svg>
