<svg preserveAspectRatio="none" width="100%" height="100%" overflow="visible" style="display: block;" viewBox="0 0 17 17" fill="none" xmlns="http://www.w3.org/2000/svg">
<g id="Vector">
<path d="M8.5 11.5C10.1569 11.5 11.5 10.1569 11.5 8.5C11.5 6.84315 10.1569 5.5 8.5 5.5C6.84315 5.5 5.5 6.84315 5.5 8.5C5.5 10.1569 6.84315 11.5 8.5 11.5Z" fill="var(--fill-0, #F1B959)"/>
<path d="M8.5 1V2.5Z" fill="var(--fill-0, #F1B959)"/>
<path d="M8.5 14.5V16Z" fill="var(--fill-0, #F1B959)"/>
<path d="M3.1975 3.1975L4.255 4.255Z" fill="var(--fill-0, #F1B959)"/>
<path d="M12.745 12.745L13.8025 13.8025Z" fill="var(--fill-0, #F1B959)"/>
<path d="M1 8.5H2.5Z" fill="var(--fill-0, #F1B959)"/>
<path d="M14.5 8.5H16Z" fill="var(--fill-0, #F1B959)"/>
<path d="M4.255 12.745L3.1975 13.8025Z" fill="var(--fill-0, #F1B959)"/>
<path d="M13.8025 3.1975L12.745 4.255Z" fill="var(--fill-0, #F1B959)"/>
<path d="M8.5 1V2.5M8.5 14.5V16M3.1975 3.1975L4.255 4.255M12.745 12.745L13.8025 13.8025M1 8.5H2.5M14.5 8.5H16M4.255 12.745L3.1975 13.8025M13.8025 3.1975L12.745 4.255M11.5 8.5C11.5 10.1569 10.1569 11.5 8.5 11.5C6.84315 11.5 5.5 10.1569 5.5 8.5C5.5 6.84315 6.84315 5.5 8.5 5.5C10.1569 5.5 11.5 6.84315 11.5 8.5Z" stroke="var(--stroke-0, #F1B959)" stroke-width="2" stroke-linecap="round" stroke-linejoin="round"/>
</g>
</svg>
