<svg preserveAspectRatio="none" width="100%" height="100%" overflow="visible" style="display: block;" viewBox="0 0 30 33" fill="none" xmlns="http://www.w3.org/2000/svg">
<path id="Vector" d="M11.3595 4.28969C11.4456 3.3896 11.8664 2.55374 12.5398 1.94542C13.2131 1.33709 14.0906 1 15.0008 1C15.911 1 16.7884 1.33709 17.4618 1.94542C18.1351 2.55374 18.556 3.3896 18.6421 4.28969C18.6939 4.87113 18.8859 5.43163 19.2019 5.92374C19.5179 6.41585 19.9487 6.82509 20.4576 7.1168C20.9666 7.40852 21.5388 7.57414 22.1259 7.59963C22.7129 7.62513 23.2975 7.50975 23.8302 7.26327C24.6572 6.89025 25.5944 6.83628 26.4593 7.11185C27.3243 7.38742 28.055 7.97281 28.5094 8.7541C28.9638 9.53539 29.1093 10.4567 28.9176 11.3387C28.7259 12.2206 28.2107 13.0002 27.4723 13.5256C26.9914 13.8608 26.5989 14.3061 26.3279 14.8238C26.0569 15.3415 25.9154 15.9165 25.9154 16.5C25.9154 17.0835 26.0569 17.6585 26.3279 18.1762C26.5989 18.6939 26.9914 19.1392 27.4723 19.4744C28.2107 19.9998 28.7259 20.7794 28.9176 21.6613C29.1093 22.5433 28.9638 23.4646 28.5094 24.2459C28.055 25.0272 27.3243 25.6126 26.4593 25.8882C25.5944 26.1637 24.6572 26.1097 23.8302 25.7367C23.2975 25.4903 22.7129 25.3749 22.1259 25.4004C21.5388 25.4259 20.9666 25.5915 20.4576 25.8832C19.9487 26.1749 19.5179 26.5841 19.2019 27.0763C18.8859 27.5684 18.6939 28.1289 18.6421 28.7103C18.556 29.6104 18.1351 30.4463 17.4618 31.0546C16.7884 31.6629 15.911 32 15.0008 32C14.0906 32 13.2131 31.6629 12.5398 31.0546C11.8664 30.4463 11.4456 29.6104 11.3595 28.7103C11.3078 28.1287 11.1158 27.5679 10.7996 27.0757C10.4835 26.5834 10.0526 26.174 9.54346 25.8823C9.03429 25.5905 8.46183 25.425 7.87458 25.3996C7.28732 25.3743 6.70257 25.4899 6.16985 25.7367C5.34278 26.1097 4.40558 26.1637 3.54066 25.8882C2.67574 25.6126 1.94497 25.0272 1.49058 24.2459C1.0362 23.4646 0.8907 22.5433 1.08241 21.6613C1.27412 20.7794 1.78932 19.9998 2.52775 19.4744C3.0086 19.1392 3.40112 18.6939 3.6721 18.1762C3.94308 17.6585 4.08456 17.0835 4.08456 16.5C4.08456 15.9165 3.94308 15.3415 3.6721 14.8238C3.40112 14.3061 3.0086 13.8608 2.52775 13.5256C1.79036 12.9999 1.27607 12.2207 1.08482 11.3393C0.893573 10.4579 1.03903 9.53738 1.49293 8.7566C1.94682 7.97582 2.67673 7.39056 3.5408 7.11457C4.40487 6.83859 5.34137 6.89158 6.16829 7.26327C6.70094 7.50975 7.28553 7.62513 7.87258 7.59963C8.45962 7.57414 9.03185 7.40852 9.54081 7.1168C10.0498 6.82509 10.4805 6.41585 10.7965 5.92374C11.1125 5.43163 11.3046 4.87113 11.3563 4.28969M19.6894 16.5008C19.6894 19.0735 17.5899 21.1591 15 21.1591C12.4101 21.1591 10.3106 19.0735 10.3106 16.5008C10.3106 13.928 12.4101 11.8424 15 11.8424C17.5899 11.8424 19.6894 13.928 19.6894 16.5008Z" stroke="var(--stroke-0, black)" stroke-width="2" stroke-linecap="round" stroke-linejoin="round"/>
</svg>
