<svg preserveAspectRatio="none" width="100%" height="100%" overflow="visible" style="display: block;" viewBox="0 0 30 28" fill="none" xmlns="http://www.w3.org/2000/svg">
<path id="Vector" d="M12.3 11.9167H17.7M12.3 7.05556H17.7M6.9 11.2222H4.2C3.48392 11.2222 2.79716 11.5149 2.29081 12.0358C1.78446 12.5567 1.5 13.2633 1.5 14V23.7222C1.5 24.4589 1.78446 25.1655 2.29081 25.6864C2.79716 26.2073 3.48392 26.5 4.2 26.5H25.8C26.5161 26.5 27.2028 26.2073 27.7092 25.6864C28.2155 25.1655 28.5 24.4589 28.5 23.7222V9.83333C28.5 9.09662 28.2155 8.39008 27.7092 7.86915C27.2028 7.34821 26.5161 7.05556 25.8 7.05556H23.1M6.9 26.5V4.27778C6.9 3.54107 7.18446 2.83453 7.69081 2.31359C8.19716 1.79266 8.88392 1.5 9.6 1.5H20.4C21.1161 1.5 21.8028 1.79266 22.3092 2.31359C22.8155 2.83453 23.1 3.54107 23.1 4.27778V26.5M12.3 16.7778H17.7M12.3 21.6389H17.7" stroke="var(--stroke-0, #33B468)" stroke-width="3" stroke-linecap="round" stroke-linejoin="round"/>
</svg>
