<svg preserveAspectRatio="none" width="100%" height="100%" overflow="visible" style="display: block;" viewBox="0 0 30 30" fill="none" xmlns="http://www.w3.org/2000/svg">
<path id="Vector" d="M26.1973 1.00335V6.60201M28.9967 3.80268H23.398M13.6241 2.14268C13.6841 1.8216 13.8545 1.53161 14.1058 1.32292C14.357 1.11424 14.6734 1 15 1C15.3266 1 15.643 1.11424 15.8943 1.32292C16.1455 1.53161 16.3159 1.8216 16.3759 2.14268L17.8469 9.92202C17.9514 10.4751 18.2202 10.9838 18.6182 11.3818C19.0162 11.7798 19.5249 12.0486 20.078 12.1531L27.8573 13.6241C28.1784 13.6841 28.4684 13.8545 28.6771 14.1058C28.8858 14.357 29 14.6734 29 15C29 15.3266 28.8858 15.643 28.6771 15.8943C28.4684 16.1455 28.1784 16.3159 27.8573 16.3759L20.078 17.8469C19.5249 17.9514 19.0162 18.2202 18.6182 18.6182C18.2202 19.0162 17.9514 19.5249 17.8469 20.078L16.3759 27.8573C16.3159 28.1784 16.1455 28.4684 15.8943 28.6771C15.643 28.8858 15.3266 29 15 29C14.6734 29 14.357 28.8858 14.1058 28.6771C13.8545 28.4684 13.6841 28.1784 13.6241 27.8573L12.1531 20.078C12.0486 19.5249 11.7798 19.0162 11.3818 18.6182C10.9838 18.2202 10.4751 17.9514 9.92202 17.8469L2.14268 16.3759C1.8216 16.3159 1.53161 16.1455 1.32292 15.8943C1.11424 15.643 1 15.3266 1 15C1 14.6734 1.11424 14.357 1.32292 14.1058C1.53161 13.8545 1.8216 13.6841 2.14268 13.6241L9.92202 12.1531C10.4751 12.0486 10.9838 11.7798 11.3818 11.3818C11.7798 10.9838 12.0486 10.4751 12.1531 9.92202L13.6241 2.14268ZM6.60201 26.1973C6.60201 27.7433 5.34871 28.9967 3.80268 28.9967C2.25665 28.9967 1.00335 27.7433 1.00335 26.1973C1.00335 24.6513 2.25665 23.398 3.80268 23.398C5.34871 23.398 6.60201 24.6513 6.60201 26.1973Z" stroke="var(--stroke-0, white)" stroke-width="2" stroke-linecap="round" stroke-linejoin="round"/>
</svg>
